<svg version="1.1" class="logo" width="40" height="50" xmlns="http://www.w3.org/2000/svg" xmlns:xlink="http://www.w3.org/1999/xlink" x="0px" y="0px" viewBox="0 0 70 70.6" style="enable-background:new 0 0 70 70.6;" xml:space="preserve">
  <style type="text/css">
      .st1{fill:#fff;}
      .st0{fill:#C1272D;}
  </style>
  <g id="XMLID_2_">
      <path id="XMLID_8_" class="st1" d="M24.7,29.8c0-1.6-0.6-2.9-1.8-3.9c-1.2-1-3.5-1.9-6.9-2.6c-4.7-1-8.3-2.4-10.8-4.2
c-2.5-1.8-3.8-4.2-3.8-7.3c0-3.2,1.4-6,4.1-8.3C8.3,1.2,11.9,0,16.3,0c4.5,0,8.2,1.2,11,3.7s4.1,5.3,4,8.6l-0.1,0.2h-6.9
c0-1.7-0.8-3.3-2.3-4.7s-3.4-2.1-5.7-2.1c-2.6,0-4.5,0.6-5.7,1.7C9.3,8.6,8.7,10,8.7,11.6c0,1.6,0.5,2.8,1.6,3.6
c1.1,0.9,3.3,1.6,6.8,2.4c4.9,1,8.6,2.5,11.1,4.4c2.5,1.9,3.8,4.4,3.8,7.4c0,3.5-1.4,6.4-4.3,8.6c-2.9,2.2-6.6,3.3-11.2,3.3
c-5.1,0-9.1-1.3-12-3.9c-2.9-2.6-4.3-5.6-4.2-9l0.1-0.2h6.9c0.1,2.6,1.1,4.5,2.9,5.6c1.8,1.2,3.9,1.8,6.3,1.8
c2.6,0,4.6-0.5,6.1-1.6C24,32.9,24.7,31.5,24.7,29.8z"></path>
      <path id="XMLID_6_" class="st1" d="M62.7,30.1c0-1.6-0.6-2.9-1.8-3.9c-1.2-1-3.5-1.9-6.9-2.6c-4.7-1-8.3-2.4-10.8-4.2
c-2.5-1.8-3.8-4.2-3.8-7.3c0-3.2,1.4-6,4.1-8.3c2.8-2.3,6.3-3.5,10.7-3.5c4.5,0,8.2,1.2,11,3.7c2.8,2.5,4.1,5.3,4,8.6l-0.1,0.2
h-6.9c0-1.7-0.8-3.3-2.3-4.7c-1.5-1.4-3.4-2.1-5.7-2.1c-2.6,0-4.5,0.6-5.7,1.7c-1.3,1.2-1.9,2.5-1.9,4.1c0,1.6,0.5,2.8,1.6,3.6
c1.1,0.9,3.3,1.6,6.8,2.4c4.9,1,8.6,2.5,11.1,4.4c2.5,1.9,3.8,4.4,3.8,7.4c0,3.5-1.4,6.4-4.3,8.6c-2.9,2.2-6.6,3.3-11.2,3.3
c-5.1,0-9.1-1.3-12-3.9c-2.9-2.6-4.3-5.6-4.2-9l0.1-0.2h6.9c0.1,2.6,1.1,4.5,2.9,5.6c1.8,1.2,3.9,1.8,6.3,1.8
c2.6,0,4.6-0.5,6.1-1.6C61.9,33.1,62.7,31.8,62.7,30.1z"></path>
      <path id="XMLID_5_" class="st0" d="M67.4,69.2l-32.5,1.4L2.6,69.2C1.2,69.2,0,68,0,66.6v0C0,65.2,1.2,64,2.6,64l32.4,1.4L67.4,64
c1.4,0,2.6,1.2,2.6,2.6v0C70,68,68.8,69.2,67.4,69.2z"></path>
      <path id="XMLID_4_" class="st1" d="M67.4,60.3l-32.5,1.4L2.6,60.3c-1.4,0-2.6-1.2-2.6-2.6v0c0-1.4,1.2-2.6,2.6-2.6l32.4,1.4
l32.5-1.4c1.4,0,2.6,1.2,2.6,2.6v0C70,59.1,68.8,60.3,67.4,60.3z"></path>
      <path id="XMLID_3_" class="st0" d="M67.4,51.4l-32.5,1.4L2.6,51.4c-1.4,0-2.6-1.2-2.6-2.6v0c0-1.4,1.2-2.6,2.6-2.6l32.4,1.4
l32.5-1.4c1.4,0,2.6,1.2,2.6,2.6v0C70,50.2,68.8,51.4,67.4,51.4z"></path>
  </g>
</svg>
